<mxfile host="app.diagrams.net" agent="Mozilla/5.0 (Windows NT 10.0; Win64; x64) AppleWebKit/537.36 (KHTML, like Gecko) Chrome/137.0.0.0 Safari/537.36" version="27.1.4" pages="3">
  <diagram name="Page-1" id="91jscVkorQK-JBloRmye">
    <mxGraphModel dx="1426" dy="777" grid="1" gridSize="10" guides="1" tooltips="1" connect="1" arrows="1" fold="1" page="1" pageScale="1" pageWidth="827" pageHeight="1169" math="0" shadow="0">
      <root>
        <mxCell id="0" />
        <mxCell id="1" parent="0" />
        <mxCell id="wind" value="Quạt Gió" style="shape=ellipse;fillColor=#4CAF50;strokeColor=#2E7D32;gradientColor=#81C784;fontColor=#FFFFFF;fontSize=16;" parent="1" vertex="1">
          <mxGeometry x="10" y="60" width="110" height="60" as="geometry" />
        </mxCell>
        <mxCell id="solar" value="Pin Mặt Trời" style="shape=ellipse;fillColor=#FFC107;strokeColor=#FF8F00;gradientColor=#FFD54F;fontColor=#212121;fontSize=16;" parent="1" vertex="1">
          <mxGeometry x="10" y="150" width="110" height="60" as="geometry" />
        </mxCell>
        <mxCell id="hydro" value="Thủy điện" style="shape=ellipse;fillColor=#03A9F4;strokeColor=#0288D1;gradientColor=#4FC3F7;fontColor=#FFFFFF;fontSize=16;" parent="1" vertex="1">
          <mxGeometry x="10" y="250" width="110" height="60" as="geometry" />
        </mxCell>
        <mxCell id="sensor" value="Cảm biến&#xa;Ánh sáng" style="shape=ellipse;fillColor=#FF7043;strokeColor=#E64A19;gradientColor=#FF8A65;fontColor=#FFFFFF;fontSize=16;" parent="1" vertex="1">
          <mxGeometry x="295" y="505" width="90" height="90" as="geometry" />
        </mxCell>
        <mxCell id="esp32" value="ESP8266" style="shape=hexagon;fillColor=#673AB7;strokeColor=#5E35B1;gradientColor=#9575CD;fontColor=#FFFFFF;fontSize=16;" parent="1" vertex="1">
          <mxGeometry x="285" y="375" width="110" height="90" as="geometry" />
        </mxCell>
        <mxCell id="led_solar" value="LED Mặt Trời" style="shape=ellipse;fillColor=#FFF9C4;strokeColor=#FFEE58;gradientColor=#FFFDE7;fontColor=#212121;fontSize=16;" parent="1" vertex="1">
          <mxGeometry x="620" y="520" width="120" height="60" as="geometry" />
        </mxCell>
        <mxCell id="led_city" value="Ánh sáng&#xa;Thành Phố" style="shape=ellipse;fillColor=#E1F5FE;strokeColor=#4FC3F7;gradientColor=#B3E5FC;fontColor=#212121;fontSize=16;" parent="1" vertex="1">
          <mxGeometry y="390" width="120" height="60" as="geometry" />
        </mxCell>
        <mxCell id="firebase" value="CSDL&#xa;Firebase" style="shape=cloud;fillColor=#FFA000;strokeColor=#FF6F00;gradientColor=#FFC107;fontColor=#FFFFFF;fontSize=16;" parent="1" vertex="1">
          <mxGeometry x="280" y="190" width="120" height="80" as="geometry" />
        </mxCell>
        <mxCell id="web" value="Giao diện Web" style="shape=rectangle;rounded=1;fillColor=#E1F5FE;strokeColor=#4FC3F7;gradientColor=#B3E5FC;fontColor=#0277BD;fontSize=18;" parent="1" vertex="1">
          <mxGeometry x="610" y="195" width="140" height="70" as="geometry" />
        </mxCell>
        <mxCell id="day_night" value="Điều khiển ngày đêm" style="shape=rectangle;rounded=1;fillColor=#9E9E9E;strokeColor=#616161;gradientColor=#B0BEC5;fontColor=#FFFFFF;fontSize=16;" parent="1" vertex="1">
          <mxGeometry x="590" y="375" width="180" height="60" as="geometry" />
        </mxCell>
        <mxCell id="conn_city_firebase" value="" style="edgeStyle=none;endArrow=classic;html=1;strokeWidth=2;strokeColor=#2A5CAA;fontSize=12;fontColor=#2A5CAA;exitX=0.5;exitY=1;exitDx=0;exitDy=0;exitPerimeter=0;" parent="1" source="nG6pSHDmTLSfgID_-Cg2-3" target="firebase" edge="1">
          <mxGeometry x="0.0369" y="111" relative="1" as="geometry">
            <mxPoint x="345" y="120" as="sourcePoint" />
            <mxPoint x="460" y="330" as="targetPoint" />
            <mxPoint as="offset" />
          </mxGeometry>
        </mxCell>
        <mxCell id="Bz2pB0bqixxjR13yoHAi-2" value="&lt;font style=&quot;color: rgb(0, 0, 0);&quot;&gt;&lt;span style=&quot;font-size: 17px;&quot;&gt;Năng lượng&lt;/span&gt;&lt;br style=&quot;font-size: 17px;&quot;&gt;&lt;span style=&quot;font-size: 17px;&quot;&gt;tiêu thụ&lt;/span&gt;&lt;/font&gt;" style="edgeLabel;html=1;align=center;verticalAlign=middle;resizable=0;points=[];" parent="conn_city_firebase" vertex="1" connectable="0">
          <mxGeometry x="-0.1664" y="1" relative="1" as="geometry">
            <mxPoint as="offset" />
          </mxGeometry>
        </mxCell>
        <mxCell id="conn_wind_firebase" value="&lt;font style=&quot;font-size: 17px;&quot;&gt;Năng lượng gió&lt;/font&gt;" style="edgeStyle=none;endArrow=classic;html=1;strokeWidth=2;strokeColor=#4CAF50;fontSize=12;fontColor=#4CAF50;exitX=1;exitY=0.5;exitDx=0;exitDy=0;" parent="1" source="wind" target="firebase" edge="1">
          <mxGeometry relative="1" as="geometry" />
        </mxCell>
        <mxCell id="conn_solar_firebase" value="&lt;font style=&quot;font-size: 17px;&quot;&gt;Năng lượng&lt;br&gt;Mặt Trời&lt;/font&gt;" style="edgeStyle=none;endArrow=classic;html=1;strokeWidth=2;strokeColor=#FFC107;fontSize=12;fontColor=#FF8F00;" parent="1" source="solar" target="firebase" edge="1">
          <mxGeometry relative="1" as="geometry" />
        </mxCell>
        <mxCell id="conn_hydro_firebase" value="&lt;font style=&quot;font-size: 17px;&quot;&gt;Năng lượng&lt;br&gt;Thủy Điện&lt;/font&gt;" style="edgeStyle=none;endArrow=classic;html=1;strokeWidth=2;strokeColor=#03A9F4;fontSize=12;fontColor=#0288D1;" parent="1" source="hydro" target="firebase" edge="1">
          <mxGeometry relative="1" as="geometry" />
        </mxCell>
        <mxCell id="conn_led_solar_sensor" value="&lt;font style=&quot;font-size: 17px;&quot;&gt;Trạng thái Mặt trời&lt;/font&gt;" style="edgeStyle=none;endArrow=classic;html=1;strokeWidth=2;strokeColor=#FF7043;fontSize=12;fontColor=#E64A19;" parent="1" source="led_solar" target="sensor" edge="1">
          <mxGeometry relative="1" as="geometry" />
        </mxCell>
        <mxCell id="conn_sensor_esp32" value="&lt;font style=&quot;font-size: 17px;&quot;&gt;Dữ liệu cảm biến&lt;/font&gt;" style="edgeStyle=none;endArrow=classic;html=1;strokeWidth=2;strokeColor=#FF7043;fontSize=12;fontColor=#E64A19;" parent="1" source="sensor" target="esp32" edge="1">
          <mxGeometry relative="1" as="geometry" />
        </mxCell>
        <mxCell id="conn_esp32_led_city" value="&lt;font style=&quot;font-size: 17px;&quot;&gt;ĐIều khiển&lt;br&gt;(ngược)&lt;/font&gt;" style="edgeStyle=none;endArrow=classic;html=1;strokeWidth=2;strokeColor=#673AB7;fontSize=12;fontColor=#5E35B1;" parent="1" source="esp32" target="led_city" edge="1">
          <mxGeometry relative="1" as="geometry" />
        </mxCell>
        <mxCell id="conn_esp32_firebase" value="&lt;font style=&quot;font-size: 17px;&quot;&gt;WIFI&lt;/font&gt;" style="edgeStyle=none;endArrow=classic;html=1;strokeWidth=2;strokeColor=#FFA000;fontSize=12;fontColor=#FF6F00;dashed=1;" parent="1" source="esp32" target="firebase" edge="1">
          <mxGeometry relative="1" as="geometry" />
        </mxCell>
        <mxCell id="conn_firebase_web" value="&lt;font style=&quot;font-size: 17px;&quot;&gt;API&lt;br&gt;Realtime Database&lt;/font&gt;" style="edgeStyle=none;endArrow=classic;html=1;strokeWidth=2;strokeColor=#0277BD;fontSize=12;fontColor=#01579B;" parent="1" source="firebase" target="web" edge="1">
          <mxGeometry relative="1" as="geometry" />
        </mxCell>
        <mxCell id="conn_web_day_night" value="&lt;font style=&quot;font-size: 17px;&quot;&gt;Tín hiệu điều khiển&lt;/font&gt;" style="edgeStyle=none;endArrow=classic;html=1;strokeWidth=2;strokeColor=#0277BD;fontSize=12;fontColor=#01579B;entryX=0.5;entryY=0;entryDx=0;entryDy=0;" parent="1" source="web" target="day_night" edge="1">
          <mxGeometry relative="1" as="geometry">
            <mxPoint x="680" y="390" as="targetPoint" />
          </mxGeometry>
        </mxCell>
        <mxCell id="conn_day_night_led_solar" value="&lt;font style=&quot;font-size: 17px;&quot;&gt;điều khiển&lt;/font&gt;" style="edgeStyle=none;endArrow=classic;html=1;strokeWidth=2;strokeColor=#9E9E9E;fontSize=12;fontColor=#616161;exitX=0.5;exitY=1;exitDx=0;exitDy=0;" parent="1" source="day_night" target="led_solar" edge="1">
          <mxGeometry relative="1" as="geometry">
            <mxPoint x="680" y="450" as="sourcePoint" />
          </mxGeometry>
        </mxCell>
        <mxCell id="nG6pSHDmTLSfgID_-Cg2-3" value="&lt;div&gt;&lt;font style=&quot;font-size: 17px;&quot;&gt;&lt;br&gt;&lt;/font&gt;&lt;/div&gt;&lt;font style=&quot;font-size: 17px;&quot;&gt;Thành Phố&lt;br&gt;(Metro)&lt;/font&gt;" style="strokeWidth=2;html=1;shape=mxgraph.flowchart.database;whiteSpace=wrap;fontSize=16;" parent="1" vertex="1">
          <mxGeometry x="285" y="50" width="115" height="60" as="geometry" />
        </mxCell>
      </root>
    </mxGraphModel>
  </diagram>
  <diagram id="yFIC-wXtEpNA3DT1km8z" name="Page-2">
    <mxGraphModel dx="1426" dy="777" grid="1" gridSize="10" guides="1" tooltips="1" connect="1" arrows="1" fold="1" page="1" pageScale="1" pageWidth="827" pageHeight="1169" math="0" shadow="0">
      <root>
        <mxCell id="0" />
        <mxCell id="1" parent="0" />
        <mxCell id="sensor" value="Cảm biến&#xa;Ánh sáng" style="shape=ellipse;fillColor=#FF7043;strokeColor=#E64A19;gradientColor=#FF8A65;fontColor=#FFFFFF;fontSize=16;" vertex="1" parent="1">
          <mxGeometry x="324" y="495" width="90" height="90" as="geometry" />
        </mxCell>
        <mxCell id="esp32" value="ESP8266" style="shape=hexagon;fillColor=#673AB7;strokeColor=#5E35B1;gradientColor=#9575CD;fontColor=#FFFFFF;fontSize=16;" vertex="1" parent="1">
          <mxGeometry x="314" y="365" width="110" height="90" as="geometry" />
        </mxCell>
        <mxCell id="led_solar" value="LED Mặt Trời" style="shape=ellipse;fillColor=#FFF9C4;strokeColor=#FFEE58;gradientColor=#FFFDE7;fontColor=#212121;fontSize=16;" vertex="1" parent="1">
          <mxGeometry x="649" y="510" width="120" height="60" as="geometry" />
        </mxCell>
        <mxCell id="led_city" value="Ánh sáng&#xa;Thành Phố" style="shape=ellipse;fillColor=#E1F5FE;strokeColor=#4FC3F7;gradientColor=#B3E5FC;fontColor=#212121;fontSize=16;" vertex="1" parent="1">
          <mxGeometry x="29" y="380" width="120" height="60" as="geometry" />
        </mxCell>
        <mxCell id="firebase" value="CSDL&#xa;Firebase" style="shape=cloud;fillColor=#FFA000;strokeColor=#FF6F00;gradientColor=#FFC107;fontColor=#FFFFFF;fontSize=16;" vertex="1" parent="1">
          <mxGeometry x="309" y="180" width="120" height="80" as="geometry" />
        </mxCell>
        <mxCell id="web" value="Giao diện Web" style="shape=rectangle;rounded=1;fillColor=#E1F5FE;strokeColor=#4FC3F7;gradientColor=#B3E5FC;fontColor=#0277BD;fontSize=18;" vertex="1" parent="1">
          <mxGeometry x="639" y="185" width="140" height="70" as="geometry" />
        </mxCell>
        <mxCell id="day_night" value="Điều khiển ngày đêm" style="shape=rectangle;rounded=1;fillColor=#9E9E9E;strokeColor=#616161;gradientColor=#B0BEC5;fontColor=#FFFFFF;fontSize=16;" vertex="1" parent="1">
          <mxGeometry x="619" y="365" width="180" height="60" as="geometry" />
        </mxCell>
        <mxCell id="conn_led_solar_sensor" value="&lt;font style=&quot;font-size: 17px;&quot;&gt;Trạng thái Mặt trời&lt;/font&gt;" style="edgeStyle=none;endArrow=classic;html=1;strokeWidth=2;strokeColor=#FF7043;fontSize=12;fontColor=#E64A19;" edge="1" parent="1" source="led_solar" target="sensor">
          <mxGeometry relative="1" as="geometry" />
        </mxCell>
        <mxCell id="conn_sensor_esp32" value="&lt;font style=&quot;font-size: 17px;&quot;&gt;Dữ liệu cảm biến&lt;/font&gt;" style="edgeStyle=none;endArrow=classic;html=1;strokeWidth=2;strokeColor=#FF7043;fontSize=12;fontColor=#E64A19;" edge="1" parent="1" source="sensor" target="esp32">
          <mxGeometry relative="1" as="geometry" />
        </mxCell>
        <mxCell id="conn_esp32_led_city" value="&lt;font style=&quot;font-size: 17px;&quot;&gt;ĐIều khiển&lt;br&gt;(ngược)&lt;/font&gt;" style="edgeStyle=none;endArrow=classic;html=1;strokeWidth=2;strokeColor=#673AB7;fontSize=12;fontColor=#5E35B1;" edge="1" parent="1" source="esp32" target="led_city">
          <mxGeometry relative="1" as="geometry" />
        </mxCell>
        <mxCell id="conn_esp32_firebase" value="&lt;font style=&quot;font-size: 17px;&quot;&gt;WIFI&lt;/font&gt;" style="edgeStyle=none;endArrow=classic;html=1;strokeWidth=2;strokeColor=#FFA000;fontSize=12;fontColor=#FF6F00;dashed=1;" edge="1" parent="1" source="esp32" target="firebase">
          <mxGeometry relative="1" as="geometry" />
        </mxCell>
        <mxCell id="conn_firebase_web" value="&lt;font style=&quot;font-size: 17px;&quot;&gt;API&lt;br&gt;Realtime Database&lt;/font&gt;" style="edgeStyle=none;endArrow=classic;html=1;strokeWidth=2;strokeColor=#0277BD;fontSize=12;fontColor=#01579B;" edge="1" parent="1" source="firebase" target="web">
          <mxGeometry relative="1" as="geometry" />
        </mxCell>
        <mxCell id="conn_web_day_night" value="&lt;font style=&quot;font-size: 17px;&quot;&gt;Tín hiệu điều khiển&lt;/font&gt;" style="edgeStyle=none;endArrow=classic;html=1;strokeWidth=2;strokeColor=#0277BD;fontSize=12;fontColor=#01579B;entryX=0.5;entryY=0;entryDx=0;entryDy=0;" edge="1" parent="1" source="web" target="day_night">
          <mxGeometry relative="1" as="geometry">
            <mxPoint x="709" y="380" as="targetPoint" />
          </mxGeometry>
        </mxCell>
        <mxCell id="conn_day_night_led_solar" value="&lt;font style=&quot;font-size: 17px;&quot;&gt;điều khiển&lt;/font&gt;" style="edgeStyle=none;endArrow=classic;html=1;strokeWidth=2;strokeColor=#9E9E9E;fontSize=12;fontColor=#616161;exitX=0.5;exitY=1;exitDx=0;exitDy=0;" edge="1" parent="1" source="day_night" target="led_solar">
          <mxGeometry relative="1" as="geometry">
            <mxPoint x="709" y="440" as="sourcePoint" />
          </mxGeometry>
        </mxCell>
      </root>
    </mxGraphModel>
  </diagram>
  <diagram id="ODXygI4yaNWP-lBPkvQT" name="Page-3">
    <mxGraphModel dx="1426" dy="777" grid="1" gridSize="10" guides="1" tooltips="1" connect="1" arrows="1" fold="1" page="1" pageScale="1" pageWidth="827" pageHeight="1169" math="0" shadow="0">
      <root>
        <mxCell id="0" />
        <mxCell id="1" parent="0" />
        <mxCell id="solar_farm" value="Khu vực &#xa;năng lượng tái tạo" style="shape=ellipse;fontSize=16;strokeWidth=2;" parent="1" vertex="1">
          <mxGeometry x="10" y="50" width="170" height="70" as="geometry" />
        </mxCell>
        <mxCell id="esp8266" value="ESP8266" style="shape=hexagon;fontSize=16;strokeWidth=2;" parent="1" vertex="1">
          <mxGeometry x="70" y="260" width="130" height="90" as="geometry" />
        </mxCell>
        <mxCell id="firebase" value="Cơ sở dữ liệu&#xa;thời gian thực" style="shape=cloud;fontSize=16;strokeWidth=2;" parent="1" vertex="1">
          <mxGeometry x="360" y="265" width="190" height="85" as="geometry" />
        </mxCell>
        <mxCell id="web_interface" value="Giao diện Web" style="shape=rectangle;rounded=1;fontSize=18;strokeWidth=2;" parent="1" vertex="1">
          <mxGeometry x="680" y="272.5" width="140" height="70" as="geometry" />
        </mxCell>
        <mxCell id="city" value="&lt;div&gt;&lt;br&gt;&lt;/div&gt;Thành Phố (Metro)" style="strokeWidth=2;html=1;shape=mxgraph.flowchart.database;whiteSpace=wrap;fontSize=16;" parent="1" vertex="1">
          <mxGeometry x="220" y="50" width="120" height="70" as="geometry" />
        </mxCell>
        <mxCell id="solar_to_esp" value="&lt;font style=&quot;color: rgb(0, 0, 0); font-size: 14px;&quot;&gt;Dữ liệu&lt;/font&gt;&lt;div&gt;&lt;font style=&quot;color: rgb(0, 0, 0); font-size: 14px;&quot;&gt;Mặt trời, gió, thủy điện&lt;/font&gt;&lt;/div&gt;" style="endArrow=classic;html=1;strokeWidth=2;fontSize=12;fontColor=#FF8F00;exitX=0.5;exitY=1;entryX=0.375;entryY=0;entryDx=0;entryDy=0;" parent="1" source="solar_farm" target="esp8266" edge="1">
          <mxGeometry x="0.0655" y="3" relative="1" as="geometry">
            <mxPoint x="100" y="250" as="targetPoint" />
            <mxPoint as="offset" />
          </mxGeometry>
        </mxCell>
        <mxCell id="esp_to_firebase" value="&lt;font style=&quot;color: rgb(0, 0, 0); font-size: 14px;&quot;&gt;Gửi dữ liệu qua WiFi&lt;/font&gt;" style="endArrow=classic;html=1;strokeWidth=2;fontSize=12;fontColor=#5E35B1;dashed=0;entryX=0.074;entryY=0.482;entryDx=0;entryDy=0;entryPerimeter=0;" parent="1" source="esp8266" target="firebase" edge="1">
          <mxGeometry relative="1" as="geometry">
            <mxPoint x="290" y="603" as="targetPoint" />
          </mxGeometry>
        </mxCell>
        <mxCell id="firebase_to_web" value="&lt;font style=&quot;font-size: 14px; color: light-dark(rgb(0, 0, 0), rgb(237, 237, 237));&quot;&gt;Dữ liệu&lt;br&gt;từng khu vực&lt;/font&gt;" style="endArrow=classic;html=1;strokeWidth=2;fontSize=12;fontColor=#01579B;dashed=0;" parent="1" source="firebase" target="web_interface" edge="1">
          <mxGeometry x="-0.1106" y="6" relative="1" as="geometry">
            <mxPoint as="offset" />
          </mxGeometry>
        </mxCell>
        <mxCell id="firebase_to_esp" value="&lt;font style=&quot;font-size: 14px; color: light-dark(rgb(0, 0, 0), rgb(237, 237, 237));&quot;&gt;Dữ liệu hiển thị OLED&lt;/font&gt;" style="endArrow=classic;html=1;strokeWidth=2;fontSize=12;fontColor=#5E35B1;dashed=0;exitX=0.13;exitY=0.77;exitDx=0;exitDy=0;exitPerimeter=0;entryX=0.869;entryY=0.767;entryDx=0;entryDy=0;entryPerimeter=0;" parent="1" edge="1" target="esp8266" source="firebase">
          <mxGeometry x="-0.068" y="1" relative="1" as="geometry">
            <mxPoint x="310" y="630.54" as="sourcePoint" />
            <mxPoint x="138" y="320" as="targetPoint" />
            <Array as="points" />
            <mxPoint as="offset" />
          </mxGeometry>
        </mxCell>
        <mxCell id="city_to_firebase" value="&lt;font style=&quot;color: rgb(0, 0, 0); font-size: 14px;&quot;&gt;Năng lượng tiêu thụ&lt;/font&gt;" style="endArrow=classic;html=1;strokeWidth=2;fontSize=12;fontColor=#7B1FA2;exitX=0.5;exitY=1;exitDx=0;exitDy=0;exitPerimeter=0;entryX=0.625;entryY=0;entryDx=0;entryDy=0;" parent="1" source="city" target="esp8266" edge="1">
          <mxGeometry x="-0.2571" y="-3" relative="1" as="geometry">
            <Array as="points" />
            <mxPoint as="offset" />
          </mxGeometry>
        </mxCell>
        <mxCell id="calculations" value="Tính toán sản lượng điện" style="shape=rectangle;rounded=1;fontSize=14;strokeWidth=2;" parent="1" vertex="1">
          <mxGeometry x="520" y="400" width="170" height="50" as="geometry" />
        </mxCell>
        <mxCell id="firebase_to_calc" value="" style="endArrow=classic;html=1;strokeWidth=2;strokeColor=#616161;fontSize=12;dashed=0;" parent="1" source="calculations" target="firebase" edge="1">
          <mxGeometry relative="1" as="geometry" />
        </mxCell>
        <mxCell id="hq0E4BFVcQaOYP95ZEng-3" value="&lt;font style=&quot;font-size: 14px;&quot;&gt;Kết quả&lt;/font&gt;" style="edgeLabel;html=1;align=center;verticalAlign=middle;resizable=0;points=[];" vertex="1" connectable="0" parent="firebase_to_calc">
          <mxGeometry x="-0.0783" relative="1" as="geometry">
            <mxPoint as="offset" />
          </mxGeometry>
        </mxCell>
        <mxCell id="calc_to_web" value="" style="endArrow=classic;html=1;strokeWidth=2;strokeColor=#616161;fontSize=12;dashed=0;" parent="1" source="web_interface" target="calculations" edge="1">
          <mxGeometry relative="1" as="geometry" />
        </mxCell>
        <mxCell id="hq0E4BFVcQaOYP95ZEng-5" value="" style="edgeStyle=orthogonalEdgeStyle;rounded=0;orthogonalLoop=1;jettySize=auto;html=1;strokeWidth=2;" edge="1" parent="1" source="esp8266" target="hq0E4BFVcQaOYP95ZEng-4">
          <mxGeometry relative="1" as="geometry" />
        </mxCell>
        <mxCell id="hq0E4BFVcQaOYP95ZEng-6" value="&lt;font style=&quot;font-size: 15px;&quot;&gt;sản lượng&lt;/font&gt;&lt;div&gt;&lt;font style=&quot;font-size: 15px;&quot;&gt;từng khu vực&lt;/font&gt;&lt;/div&gt;" style="edgeLabel;html=1;align=center;verticalAlign=middle;resizable=0;points=[];" vertex="1" connectable="0" parent="hq0E4BFVcQaOYP95ZEng-5">
          <mxGeometry x="-0.2667" relative="1" as="geometry">
            <mxPoint as="offset" />
          </mxGeometry>
        </mxCell>
        <mxCell id="hq0E4BFVcQaOYP95ZEng-4" value="&lt;font style=&quot;font-size: 16px;&quot;&gt;OLED&lt;/font&gt;" style="rounded=0;whiteSpace=wrap;html=1;strokeWidth=2;" vertex="1" parent="1">
          <mxGeometry x="75" y="420" width="120" height="60" as="geometry" />
        </mxCell>
      </root>
    </mxGraphModel>
  </diagram>
</mxfile>
